<svg id="esIg8TH1FS51" xmlns="http://www.w3.org/2000/svg" xmlns:xlink="http://www.w3.org/1999/xlink" viewBox="0 0 430.91406 559.70956" shape-rendering="geometricPrecision" text-rendering="geometricPrecision"><style><![CDATA[#esIg8TH1FS513_to {animation: esIg8TH1FS513_to__to 7000ms linear infinite normal forwards}@keyframes esIg8TH1FS513_to__to { 0% {transform: translate(-386.542969px,-169.145218px)} 14.285714% {transform: translate(-363.98636px,-194.100178px)} 28.571429% {transform: translate(-372.6445px,-220.373368px)} 42.857143% {transform: translate(-359.509658px,-248.300236px)} 57.142857% {transform: translate(-372.644438px,-272.620776px)} 71.428571% {transform: translate(-359.50972px,-298.331059px)} 100% {transform: translate(-359.50972px,-298.331059px)}} #esIg8TH1FS513 {animation: esIg8TH1FS513_c_o 7000ms linear infinite normal forwards}@keyframes esIg8TH1FS513_c_o { 0% {opacity: 1} 28.571429% {opacity: 1} 71.428571% {opacity: 0.4} 85.714286% {opacity: 0} 100% {opacity: 0}} #esIg8TH1FS514_to {animation: esIg8TH1FS514_to__to 7000ms linear infinite normal forwards}@keyframes esIg8TH1FS514_to__to { 0% {transform: translate(-407.406983px,-145.190258px)} 42.857143% {transform: translate(-407.406983px,-145.190258px)} 57.142857% {transform: translate(-384.542906px,-170.145218px)} 71.428571% {transform: translate(-393.508514px,-196.418408px)} 100% {transform: translate(-393.508514px,-196.418408px)}} #esIg8TH1FS514 {animation: esIg8TH1FS514_c_o 7000ms linear infinite normal forwards}@keyframes esIg8TH1FS514_c_o { 0% {opacity: 0} 41.428571% {opacity: 0} 42.857143% {opacity: 1} 71.428571% {opacity: 1} 85.714286% {opacity: 0} 100% {opacity: 0}} #esIg8TH1FS515_to {animation: esIg8TH1FS515_to__to 7000ms linear infinite normal forwards}@keyframes esIg8TH1FS515_to__to { 0% {transform: translate(-384.542969px,-170.145218px)} 14.285714% {transform: translate(-393.815919px,-196.418408px)} 28.571429% {transform: translate(-380.373734px,-224.345276px)} 42.857143% {transform: translate(-393.815919px,-248.665816px)} 57.142857% {transform: translate(-380.373734px,-274.376099px)} 71.428571% {transform: translate(-393.508514px,-296.61202px)} 100% {transform: translate(-393.508514px,-296.61202px)}} #esIg8TH1FS515 {animation: esIg8TH1FS515_c_o 7000ms linear infinite normal forwards}@keyframes esIg8TH1FS515_c_o { 0% {opacity: 1} 14.285714% {opacity: 1} 71.428571% {opacity: 0.2} 85.714286% {opacity: 0} 100% {opacity: 0}} #esIg8TH1FS516_to {animation: esIg8TH1FS516_to__to 7000ms linear infinite normal forwards}@keyframes esIg8TH1FS516_to__to { 0% {transform: translate(-384.542969px,-170.145218px)} 14.285714% {transform: translate(-371.100846px,-198.072086px)} 28.571429% {transform: translate(-384.543031px,-222.392626px)} 42.857143% {transform: translate(-371.100784px,-248.102909px)} 57.142857% {transform: translate(-384.235564px,-270.33883px)} 71.428571% {transform: translate(-366.304473px,-297.550191px)} 100% {transform: translate(-366.304473px,-297.550191px)}} #esIg8TH1FS516 {animation: esIg8TH1FS516_c_o 7000ms linear infinite normal forwards}@keyframes esIg8TH1FS516_c_o { 0% {opacity: 1} 71.428571% {opacity: 0} 85.714286% {opacity: 0} 100% {opacity: 0}} #esIg8TH1FS520_to {animation: esIg8TH1FS520_to__to 7000ms linear infinite normal forwards}@keyframes esIg8TH1FS520_to__to { 0% {transform: translate(-407.406983px,-145.190258px)} 27.142857% {transform: translate(-407.406983px,-145.190258px)} 28.571429% {transform: translate(-407.406983px,-145.190258px)} 42.857143% {transform: translate(-384.542968px,-170.895914px)} 57.142857% {transform: translate(-393.508452px,-196.418408px)} 71.428571% {transform: translate(-380.373734px,-224.345276px)} 100% {transform: translate(-380.373734px,-224.345276px)}} #esIg8TH1FS520 {animation: esIg8TH1FS520_c_o 7000ms linear infinite normal forwards}@keyframes esIg8TH1FS520_c_o { 0% {opacity: 0} 27.142857% {opacity: 0} 28.571429% {opacity: 1} 42.857143% {opacity: 1} 57.142857% {opacity: 1} 71.428571% {opacity: 0.8} 85.714286% {opacity: 0} 100% {opacity: 0}} #esIg8TH1FS521_to {animation: esIg8TH1FS521_to__to 7000ms linear infinite normal forwards}@keyframes esIg8TH1FS521_to__to { 0% {transform: translate(-407.406983px,-146.168039px)} 14.285714% {transform: translate(-400.028271px,-146.168039px)} 28.571429% {transform: translate(-384.850374px,-170.145218px)} 42.857143% {transform: translate(-393.508513px,-196.418408px)} 57.142857% {transform: translate(-380.373734px,-224.345276px)} 71.428571% {transform: translate(-393.508514px,-248.665816px)} 100% {transform: translate(-393.508514px,-248.665816px)}} #esIg8TH1FS521 {animation: esIg8TH1FS521_c_o 7000ms linear infinite normal forwards}@keyframes esIg8TH1FS521_c_o { 0% {opacity: 0} 12.857143% {opacity: 0} 14.285714% {opacity: 1} 42.857143% {opacity: 1} 71.428571% {opacity: 0.6} 85.714286% {opacity: 0} 100% {opacity: 0}} #esIg8TH1FS522_to {animation: esIg8TH1FS522_to__to 7000ms linear infinite normal forwards}@keyframes esIg8TH1FS522_to__to { 0% {transform: translate(-407.406983px,-145.190258px)} 57.142857% {transform: translate(-407.406983px,-145.190258px)} 71.428571% {transform: translate(-384.542937px,-170.145218px)} 100% {transform: translate(-384.542937px,-170.145218px)}} #esIg8TH1FS522 {animation: esIg8TH1FS522_c_o 7000ms linear infinite normal forwards}@keyframes esIg8TH1FS522_c_o { 0% {opacity: 0} 55.714286% {opacity: 0} 57.142857% {opacity: 1} 71.428571% {opacity: 1} 85.714286% {opacity: 0} 100% {opacity: 0}}]]></style><path id="esIg8TH1FS52" d="M689.29823,324.68445Q689.29823,329.46945,688.98817,334.17445C687.828999,352.26478,683.258769,369.972653,675.51844,386.36445C675.45838,386.50445,675.38807,386.63445,675.3285,386.76445C674.96815,387.52445,674.59803,388.28445,674.21815,389.03445C671.91607,393.670476,669.362293,398.177199,666.56825,402.53445C640.648949,443.15579,596.182332,468.179502,548.00819,469.25445L549.43837,551.49445L568.08827,541.67445L571.41835,548.00445L549.5785,559.50445L552.24842,712.24445L552.27821,714.28445L537.85829,715.49445L537.88807,715.44445L542.42807,469.26445C503.86035,468.710949,467.122624,452.726437,440.42807,424.88445C439.5184,423.94445,438.61801,422.97445,437.73813,422.01445C437.69813,421.97445,437.66831,421.93445,437.63803,421.90445C426.627098,409.896698,417.722054,396.116448,411.29819,381.14445C411.43833,381.30445,411.58819,381.45445,411.72836,381.61445C381.587051,311.130554,411.670527,229.372145,480.30795,195.23445C480.80795,194.98445,481.31821,194.74445,481.81821,194.49445C549.622781,161.834845,631.142773,186.582557,669.34799,251.42445C670.22836,252.9045,671.07846,254.41451,671.89829,255.93445C683.344747,277.03995,689.326495,300.674812,689.29823,324.68445Z" transform="matrix(1 0 0 1 -384.542969 -170.145218)" fill="rgb(229,229,229)" stroke="none" stroke-width="1"/><circle id="esIg8TH1FS53" r="43.067329" transform="matrix(1 0 0 1 198.284805 502.618347)" fill="rgb(47,46,65)" stroke="none" stroke-width="1"/><rect id="esIg8TH1FS54" width="38.583561" height="13.08374" rx="0" ry="0" transform="matrix(1 0 0 1 210.602707 532.222656)" fill="rgb(47,46,65)" stroke="none" stroke-width="1"/><ellipse id="esIg8TH1FS55" rx="4.08868" ry="10.90314" transform="matrix(1 0 0 1 249.458847 534.40332)" fill="rgb(47,46,65)" stroke="none" stroke-width="1"/><rect id="esIg8TH1FS56" width="38.583561" height="13.08374" rx="0" ry="0" transform="matrix(1 0 0 1 201.602707 531.222656)" fill="rgb(47,46,65)" stroke="none" stroke-width="1"/><ellipse id="esIg8TH1FS57" rx="4.08868" ry="10.90314" transform="matrix(1 0 0 1 240.458847 533.40332)" fill="rgb(47,46,65)" stroke="none" stroke-width="1"/><path id="esIg8TH1FS58" d="M541.051,632.71229C537.57352,617.13849,548.68966,601.40186,565.87966,597.56348C583.06966,593.7251,599.82387,603.23859,603.30135,618.81238C606.77883,634.38617,595.38643,640.13007,578.19649,643.96838C561.00655,647.80669,544.5285,648.28608,541.051,632.71229Z" transform="matrix(1 0 0 1 -384.542969 -170.145218)" fill="rgb(34,186,241)" stroke="none" stroke-width="1"/><path id="esIg8TH1FS59" d="M599.38041,670.31119C594.761351,670.40505,590.59875,667.537461,589.04057,663.18814C588.864745,662.664574,589.146644,662.097605,589.67021,661.92178C590.193776,661.745955,590.760745,662.027854,590.93657,662.55142C592.45073,667.05924,597.63482,669.41666,602.49114,667.80484C604.902358,667.019679,606.905419,665.31315,608.06365,663.05728C609.067544,661.094867,609.242423,658.811805,608.54912,656.71939C608.373295,656.195824,608.655194,655.628855,609.17876,655.45303C609.702326,655.277205,610.269295,655.559104,610.44512,656.08267C611.309259,658.678891,611.095898,661.513242,609.85283,663.95084C608.455667,666.681478,606.035806,668.749175,603.12065,669.70328C601.91446,670.104731,600.651652,670.309978,599.38041,670.31119Z" transform="matrix(1 0 0 1 -384.542969 -170.145218)" fill="rgb(255,255,255)" stroke="none" stroke-width="1"/><path id="esIg8TH1FS510" d="M618.56452,676.16463C620.971755,680.871493,619.107538,686.63861,614.400675,689.045845C609.693812,691.45308,603.926695,689.588863,601.51946,684.882L601.51946,684.882L601.51091,684.86526C599.10827,680.15605,602.42825,677.23299,607.13748,674.83041C611.84671,672.42783,616.162,671.45547,618.56452,676.16463Z" transform="matrix(1 0 0 1 -384.542969 -170.145218)" fill="rgb(255,255,255)" stroke="none" stroke-width="1"/><path id="esIg8TH1FS511" d="M772.27559,716.2189L391.27559,716.2189C390.723305,716.2189,390.27559,715.771185,390.27559,715.2189C390.27559,714.666615,390.723305,714.2189,391.27559,714.2189L772.27559,714.2189C772.827875,714.2189,773.27559,714.666615,773.27559,715.2189C773.27559,715.771185,772.827875,716.2189,772.27559,716.2189Z" transform="matrix(1 0 0 1 -384.542969 -170.145218)" fill="rgb(63,61,86)" stroke="none" stroke-width="1"/><ellipse id="esIg8TH1FS512" rx="7.50055" ry="23.892441" transform="matrix(0.968317 -0.249726 0.249726 0.968317 182.683111 536.497147)" fill="rgb(47,46,65)" stroke="none" stroke-width="1"/><g id="esIg8TH1FS513_to" transform="translate(-386.542969,-169.145218)"><path id="esIg8TH1FS513" d="M645.50888,621.42349L629.12323,621.42349C628.803699,621.423526,628.517102,621.226894,628.402145,620.928759C628.287187,620.630624,628.367582,620.292483,628.60442,620.07799L643.50459,606.58332L629.73769,606.58332C629.310917,606.58332,628.96495,606.237353,628.96495,605.81058C628.96495,605.383807,629.310917,605.03784,629.73769,605.03784L645.50888,605.03784C645.82841,605.03781,646.115004,605.234445,646.229961,605.532579C646.344917,605.830714,646.264525,606.168854,646.02769,606.38335L631.12753,619.878L645.50888,619.878C645.784953,619.878,646.040056,620.025283,646.178093,620.26437C646.316129,620.503457,646.316129,620.798023,646.178093,621.03711C646.040056,621.276197,645.784953,621.42348,645.50888,621.42348Z" transform="translate(0,0)" fill="rgb(203,203,203)" stroke="none" stroke-width="1"/></g><g id="esIg8TH1FS514_to" transform="translate(-407.406983,-145.190258)"><path id="esIg8TH1FS514" d="M666.37288,597.46853L649.98723,597.46853C649.6677,597.46856,649.381106,597.271925,649.266149,596.973791C649.151193,596.675656,649.231585,596.337516,649.46842,596.12302L664.36859,582.62836L650.60169,582.62836C650.174917,582.62836,649.82895,582.282393,649.82895,581.85562C649.82895,581.428847,650.174917,581.08288,650.60169,581.08288L666.37288,581.08288C666.692411,581.082844,666.979008,581.279476,667.093965,581.577611C667.208923,581.875746,667.128528,582.213887,666.89169,582.42838L651.99153,595.92305L666.37288,595.92305C666.648953,595.92305,666.904056,596.070333,667.042093,596.30942C667.180129,596.548507,667.180129,596.843073,667.042093,597.08216C666.904056,597.321247,666.648953,597.46853,666.37288,597.46853Z" transform="translate(0,0)" opacity="0" fill="rgb(203,203,203)" stroke="none" stroke-width="1"/></g><g id="esIg8TH1FS515_to" transform="translate(-384.542969,-170.145218)"><path id="esIg8TH1FS515" d="M666.37288,597.46853L649.98723,597.46853C649.6677,597.46856,649.381106,597.271925,649.266149,596.973791C649.151193,596.675656,649.231585,596.337516,649.46842,596.12302L664.36859,582.62836L650.60169,582.62836C650.174917,582.62836,649.82895,582.282393,649.82895,581.85562C649.82895,581.428847,650.174917,581.08288,650.60169,581.08288L666.37288,581.08288C666.692411,581.082844,666.979008,581.279476,667.093965,581.577611C667.208923,581.875746,667.128528,582.213887,666.89169,582.42838L651.99153,595.92305L666.37288,595.92305C666.648953,595.92305,666.904056,596.070333,667.042093,596.30942C667.180129,596.548507,667.180129,596.843073,667.042093,597.08216C666.904056,597.321247,666.648953,597.46853,666.37288,597.46853Z" transform="translate(0,0)" fill="rgb(203,203,203)" stroke="none" stroke-width="1"/></g><g id="esIg8TH1FS516_to" transform="translate(-384.542969,-170.145218)"><path id="esIg8TH1FS516" d="M657.1,571.19534L640.71434,571.19534C640.394809,571.195376,640.108212,570.998744,639.993255,570.700609C639.878297,570.402474,639.958692,570.064333,640.19553,569.84984L655.0957,556.35517L641.3288,556.35517C640.902027,556.35517,640.55606,556.009203,640.55606,555.58243C640.55606,555.155657,640.902027,554.80969,641.3288,554.80969L657.1,554.80969C657.41953,554.80966,657.706124,555.006295,657.821081,555.304429C657.936037,555.602564,657.855645,555.940704,657.61881,556.1552L642.71865,569.64986L657.1,569.64986C657.526773,569.64986,657.87274,569.995827,657.87274,570.4226C657.87274,570.849373,657.526773,571.19534,657.1,571.19534Z" transform="translate(0,0)" fill="rgb(203,203,203)" stroke="none" stroke-width="1"/></g><path id="esIg8TH1FS517" d="M770.66217,347.522L783.457,337.28854C773.51724,336.19192,769.4332,341.61283,767.76175,345.90354C759.99643,342.67908,751.54294,346.9049,751.54294,346.9049L777.14304,356.19865C775.85156,352.74912,773.603408,349.739272,770.66217,347.522Z" transform="matrix(1 0 0 1 -384.542969 -170.145218)" fill="rgb(63,61,86)" stroke="none" stroke-width="1"/><path id="esIg8TH1FS518" d="M403.66217,180.522L416.457,170.28854C406.51724,169.19192,402.4332,174.61283,400.76175,178.90354C392.99643,175.67908,384.54294,179.9049,384.54294,179.9049L410.14304,189.19865C408.85156,185.74912,406.603408,182.739272,403.66217,180.522Z" transform="matrix(1 0 0 1 -384.542969 -170.145218)" fill="rgb(63,61,86)" stroke="none" stroke-width="1"/><path id="esIg8TH1FS519" d="M802.66217,215.522L815.457,205.28854C805.51724,204.19192,801.4332,209.61283,799.76175,213.90354C791.99643,210.67908,783.54294,214.9049,783.54294,214.9049L809.14304,224.19865C807.85156,220.74912,805.603408,217.739272,802.66217,215.522Z" transform="matrix(1 0 0 1 -384.542969 -170.145218)" fill="rgb(63,61,86)" stroke="none" stroke-width="1"/><g id="esIg8TH1FS520_to" transform="translate(-407.406983,-145.190258)"><path id="esIg8TH1FS520" d="M666.37288,597.46853L649.98723,597.46853C649.6677,597.46856,649.381106,597.271925,649.266149,596.973791C649.151193,596.675656,649.231585,596.337516,649.46842,596.12302L664.36859,582.62836L650.60169,582.62836C650.174917,582.62836,649.82895,582.282393,649.82895,581.85562C649.82895,581.428847,650.174917,581.08288,650.60169,581.08288L666.37288,581.08288C666.692411,581.082844,666.979008,581.279476,667.093965,581.577611C667.208923,581.875746,667.128528,582.213887,666.89169,582.42838L651.99153,595.92305L666.37288,595.92305C666.648953,595.92305,666.904056,596.070333,667.042093,596.30942C667.180129,596.548507,667.180129,596.843073,667.042093,597.08216C666.904056,597.321247,666.648953,597.46853,666.37288,597.46853Z" transform="translate(0,0)" opacity="0" fill="rgb(203,203,203)" stroke="none" stroke-width="1"/></g><g id="esIg8TH1FS521_to" transform="translate(-407.406983,-146.168039)"><path id="esIg8TH1FS521" d="M666.37288,597.46853L649.98723,597.46853C649.6677,597.46856,649.381106,597.271925,649.266149,596.973791C649.151193,596.675656,649.231585,596.337516,649.46842,596.12302L664.36859,582.62836L650.60169,582.62836C650.174917,582.62836,649.82895,582.282393,649.82895,581.85562C649.82895,581.428847,650.174917,581.08288,650.60169,581.08288L666.37288,581.08288C666.692411,581.082844,666.979008,581.279476,667.093965,581.577611C667.208923,581.875746,667.128528,582.213887,666.89169,582.42838L651.99153,595.92305L666.37288,595.92305C666.648953,595.92305,666.904056,596.070333,667.042093,596.30942C667.180129,596.548507,667.180129,596.843073,667.042093,597.08216C666.904056,597.321247,666.648953,597.46853,666.37288,597.46853Z" transform="translate(0,0)" opacity="0" fill="rgb(203,203,203)" stroke="none" stroke-width="1"/></g><g id="esIg8TH1FS522_to" transform="translate(-407.406983,-145.190258)"><path id="esIg8TH1FS522" d="M666.37288,597.46853L649.98723,597.46853C649.6677,597.46856,649.381106,597.271925,649.266149,596.973791C649.151193,596.675656,649.231585,596.337516,649.46842,596.12302L664.36859,582.62836L650.60169,582.62836C650.174917,582.62836,649.82895,582.282393,649.82895,581.85562C649.82895,581.428847,650.174917,581.08288,650.60169,581.08288L666.37288,581.08288C666.692411,581.082844,666.979008,581.279476,667.093965,581.577611C667.208923,581.875746,667.128528,582.213887,666.89169,582.42838L651.99153,595.92305L666.37288,595.92305C666.648953,595.92305,666.904056,596.070333,667.042093,596.30942C667.180129,596.548507,667.180129,596.843073,667.042093,597.08216C666.904056,597.321247,666.648953,597.46853,666.37288,597.46853Z" transform="translate(0,0)" opacity="0" fill="rgb(203,203,203)" stroke="none" stroke-width="1"/></g></svg>