<?xml version="1.0" encoding="UTF-8"?>
<svg xmlns="http://www.w3.org/2000/svg" xmlns:xlink="http://www.w3.org/1999/xlink" width="75pt" height="75pt" viewBox="0 0 75 75" version="1.1">
<g id="surface1">
<path style=" stroke:none;fill-rule:nonzero;fill:rgb(100%,60%,0%);fill-opacity:1;" d="M 64.566406 60.550781 C 34.207031 75 15.363281 62.910156 3.304688 55.570312 C 2.558594 55.105469 1.289062 55.675781 2.390625 56.941406 C 6.40625 61.8125 19.574219 73.554688 36.765625 73.554688 C 53.964844 73.554688 64.195312 64.171875 65.476562 62.535156 C 66.75 60.910156 65.851562 60.015625 64.566406 60.550781 Z M 73.09375 55.84375 C 72.277344 54.78125 68.136719 54.582031 65.527344 54.902344 C 62.917969 55.214844 59 56.808594 59.339844 57.769531 C 59.515625 58.125 59.871094 57.964844 61.664062 57.804688 C 63.460938 57.625 68.5 56.988281 69.550781 58.363281 C 70.605469 59.742188 67.945312 66.328125 67.457031 67.386719 C 66.988281 68.449219 67.636719 68.722656 68.519531 68.015625 C 69.390625 67.308594 70.964844 65.480469 72.023438 62.886719 C 73.070312 60.285156 73.710938 56.652344 73.09375 55.84375 Z M 73.09375 55.84375 "/>
<path style=" stroke:none;fill-rule:evenodd;fill:rgb(0%,0%,0%);fill-opacity:1;" d="M 44.152344 31.070312 C 44.152344 34.859375 44.246094 38.019531 42.332031 41.386719 C 40.785156 44.125 38.335938 45.808594 35.597656 45.808594 C 31.863281 45.808594 29.683594 42.960938 29.683594 38.761719 C 29.683594 30.464844 37.117188 28.960938 44.152344 28.960938 Z M 53.964844 54.789062 C 53.320312 55.363281 52.390625 55.402344 51.667969 55.019531 C 48.4375 52.335938 47.859375 51.09375 46.082031 48.53125 C 40.742188 53.980469 36.964844 55.609375 30.042969 55.609375 C 21.855469 55.609375 15.480469 50.558594 15.480469 40.445312 C 15.480469 32.546875 19.761719 27.167969 25.851562 24.539062 C 31.136719 22.214844 38.511719 21.804688 44.152344 21.160156 L 44.152344 19.902344 C 44.152344 17.585938 44.328125 14.851562 42.976562 12.851562 C 41.785156 11.058594 39.511719 10.320312 37.515625 10.320312 C 33.804688 10.320312 30.492188 12.222656 29.683594 16.164062 C 29.519531 17.039062 28.878906 17.902344 28 17.941406 L 18.558594 16.929688 C 17.765625 16.753906 16.886719 16.109375 17.105469 14.890625 C 19.285156 3.449219 29.617188 0 38.867188 0 C 43.605469 0 49.789062 1.257812 53.527344 4.84375 C 58.261719 9.265625 57.8125 15.164062 57.8125 21.582031 L 57.8125 36.75 C 57.8125 41.304688 59.699219 43.304688 61.480469 45.769531 C 62.109375 46.644531 62.246094 47.699219 61.453125 48.355469 C 59.46875 50.011719 55.9375 53.089844 53.992188 54.816406 L 53.964844 54.789062 "/>
<path style=" stroke:none;fill-rule:nonzero;fill:rgb(100%,60%,0%);fill-opacity:1;" d="M 64.566406 60.550781 C 34.207031 75 15.363281 62.910156 3.304688 55.570312 C 2.558594 55.105469 1.289062 55.675781 2.390625 56.941406 C 6.40625 61.8125 19.574219 73.554688 36.765625 73.554688 C 53.964844 73.554688 64.195312 64.171875 65.476562 62.535156 C 66.75 60.910156 65.851562 60.015625 64.566406 60.550781 Z M 73.09375 55.84375 C 72.277344 54.78125 68.136719 54.582031 65.527344 54.902344 C 62.917969 55.214844 59 56.808594 59.339844 57.769531 C 59.515625 58.125 59.871094 57.964844 61.664062 57.804688 C 63.460938 57.625 68.5 56.988281 69.550781 58.363281 C 70.605469 59.742188 67.945312 66.328125 67.457031 67.386719 C 66.988281 68.449219 67.636719 68.722656 68.519531 68.015625 C 69.390625 67.308594 70.964844 65.480469 72.023438 62.886719 C 73.070312 60.285156 73.710938 56.652344 73.09375 55.84375 Z M 73.09375 55.84375 "/>
<path style=" stroke:none;fill-rule:evenodd;fill:rgb(0%,0%,0%);fill-opacity:1;" d="M 44.152344 31.070312 C 44.152344 34.859375 44.246094 38.019531 42.332031 41.386719 C 40.785156 44.125 38.335938 45.808594 35.597656 45.808594 C 31.863281 45.808594 29.683594 42.960938 29.683594 38.761719 C 29.683594 30.464844 37.117188 28.960938 44.152344 28.960938 Z M 53.964844 54.789062 C 53.320312 55.363281 52.390625 55.402344 51.667969 55.019531 C 48.4375 52.335938 47.859375 51.09375 46.082031 48.53125 C 40.742188 53.980469 36.964844 55.609375 30.042969 55.609375 C 21.855469 55.609375 15.480469 50.558594 15.480469 40.445312 C 15.480469 32.546875 19.761719 27.167969 25.851562 24.539062 C 31.136719 22.214844 38.511719 21.804688 44.152344 21.160156 L 44.152344 19.902344 C 44.152344 17.585938 44.328125 14.851562 42.976562 12.851562 C 41.785156 11.058594 39.511719 10.320312 37.515625 10.320312 C 33.804688 10.320312 30.492188 12.222656 29.683594 16.164062 C 29.519531 17.039062 28.878906 17.902344 28 17.941406 L 18.558594 16.929688 C 17.765625 16.753906 16.886719 16.109375 17.105469 14.890625 C 19.285156 3.449219 29.617188 0 38.867188 0 C 43.605469 0 49.789062 1.257812 53.527344 4.84375 C 58.261719 9.265625 57.8125 15.164062 57.8125 21.582031 L 57.8125 36.75 C 57.8125 41.304688 59.699219 43.304688 61.480469 45.769531 C 62.109375 46.644531 62.246094 47.699219 61.453125 48.355469 C 59.46875 50.011719 55.9375 53.089844 53.992188 54.816406 L 53.964844 54.789062 "/>
</g>
</svg>
